<svg width="46" height="46" viewBox="0 0 46 46" fill="none" xmlns="http://www.w3.org/2000/svg">
<rect width="46" height="46" rx="13" fill="#88B702"/>
<g clip-path="url(#clip0_55_12446)">
<path d="M35.5435 15.6538H12.395C10.1859 15.6538 8.39502 17.4447 8.39502 19.6538V30.7249C8.39502 32.934 10.1859 34.7249 12.395 34.7249H35.5435C37.7527 34.7249 39.5435 32.934 39.5435 30.7249V19.6538C39.5435 17.4447 37.7527 15.6538 35.5435 15.6538Z" fill="white" fill-opacity="0.4"/>
<path d="M32.3587 12.1636H10C7.79086 12.1636 6 13.9544 6 16.1636V27.2347C6 29.4438 7.79086 31.2347 10 31.2347H32.3587C34.5678 31.2347 36.3587 29.4438 36.3587 27.2347V16.1636C36.3587 13.9544 34.5678 12.1636 32.3587 12.1636Z" fill="white"/>
<path d="M21.1794 25.7446C23.4137 25.7446 25.225 23.9333 25.225 21.6989C25.225 19.4646 23.4137 17.6533 21.1794 17.6533C18.9451 17.6533 17.1338 19.4646 17.1338 21.6989C17.1338 23.9333 18.9451 25.7446 21.1794 25.7446Z" fill="#88B702"/>
<path d="M12.0644 20.2924C13.2046 20.2924 14.1288 19.3681 14.1288 18.228C14.1288 17.0878 13.2046 16.1636 12.0644 16.1636C10.9243 16.1636 10 17.0878 10 18.228C10 19.3681 10.9243 20.2924 12.0644 20.2924Z" fill="#88B702"/>
<path d="M30.2944 27.2348C31.4345 27.2348 32.3588 26.3105 32.3588 25.1704C32.3588 24.0302 31.4345 23.106 30.2944 23.106C29.1542 23.106 28.23 24.0302 28.23 25.1704C28.23 26.3105 29.1542 27.2348 30.2944 27.2348Z" fill="#88B702"/>
</g>
<defs>
<clipPath id="clip0_55_12446">
<rect width="34" height="23" fill="white" transform="translate(6 12)"/>
</clipPath>
</defs>
</svg>
