<svg width="68" height="68" viewBox="0 0 68 68" fill="none" xmlns="http://www.w3.org/2000/svg">
<rect width="68" height="68" rx="20" fill="#88B702"/>
<path d="M29.7363 34.3752C30.1465 34.7902 30.8113 34.7902 31.2214 34.3752L31.9637 33.6241C32.3738 33.2091 32.3738 32.5364 31.9637 32.1214L29.6195 29.75L31.963 27.378C32.3732 26.9629 32.3732 26.2902 31.963 25.8752L31.2208 25.1241C30.8106 24.7091 30.1458 24.7091 29.7357 25.1241L25.9071 28.9983C25.497 29.4133 25.497 30.086 25.9071 30.5011L29.7363 34.3752ZM36.037 33.6248L36.7792 34.3759C37.1894 34.7909 37.8542 34.7909 38.2643 34.3759L42.0929 30.5017C42.503 30.0867 42.503 29.414 42.0929 28.9989L38.2643 25.1248C37.8542 24.7098 37.1894 24.7098 36.7792 25.1248L36.037 25.8759C35.6268 26.2909 35.6268 26.9636 36.037 27.3786L38.3805 29.75L36.037 32.122C35.6268 32.5371 35.6268 33.2098 36.037 33.6248ZM53.95 44.625H38.0386C37.99 45.9405 37.0732 46.75 35.89 46.75H31.9C30.6735 46.75 29.7331 45.5899 29.7495 44.625H14.05C13.4725 44.625 13 45.1031 13 45.6875V46.75C13 49.0875 14.89 51 17.2 51H50.8C53.11 51 55 49.0875 55 46.75V45.6875C55 45.1031 54.5275 44.625 53.95 44.625ZM50.8 20.1875C50.8 18.4344 49.3825 17 47.65 17H20.35C18.6175 17 17.2 18.4344 17.2 20.1875V42.5H50.8V20.1875ZM46.6 38.25H21.4V21.25H46.6V38.25Z" fill="white"/>
</svg>
